<svg width="20" height="31" viewBox="0 0 20 31" fill="none" xmlns="http://www.w3.org/2000/svg">
<g clip-path="url(#clip0)">
<path d="M13.9879 17.4029C13.9879 18.4708 13.8485 21.5024 9.98032 21.5024C8.3773 21.5024 6.94849 21.0545 6.94849 19.2287C6.94849 17.4373 8.34245 16.9206 9.87578 16.6105C11.4091 16.3349 13.1515 16.3005 13.9879 15.577V17.4029ZM7.50608 11.9598C7.68031 10.0306 8.90003 9.27272 10.7818 9.27272C12.5242 9.27272 13.9879 9.58277 13.9879 11.6842C13.9879 13.6823 11.1652 13.5789 8.13335 14.0268C5.06669 14.4402 2 15.4048 2 19.4354C2 23.0871 4.7182 24.7751 8.13335 24.7751C10.3288 24.7751 12.6288 24.1895 14.1969 22.5703C14.2318 23.156 14.3712 23.7416 14.5454 24.2928H19.5636C19.1106 23.5694 18.9363 21.9502 18.9363 20.3311V11.0641C18.9363 6.79235 14.6151 6 11.0258 6C6.98334 6 2.83637 7.37799 2.55759 11.9598H7.50608Z" fill="white"/>
<path d="M20.6313 28H1V31.197H20.6313V28Z" fill="white"/>
<path d="M19.6313 0H0V3.19704H19.6313V0Z" fill="white"/>
</g>
<defs>
<clipPath id="clip0">
<rect width="20" height="31" fill="white"/>
</clipPath>
</defs>
</svg>
