<svg xmlns:xlink="http://www.w3.org/1999/xlink" xmlns="http://www.w3.org/2000/svg" class="crt-icon" aria-labelledby="crt-title" role="img" width="64"  height="64" ><defs><symbol id="bhf_icon-cart" viewBox="0 0 64 64"><title id="carrinhoIcon">icone de carrinho</title><desc id="carrinhoDesc">icone de carrinho</desc><g id="icon-cart"><path d="M60.55 23h-6.19L37.93 9.87C37.97 9.58 38 9.29 38 9c0-3.31-2.69-6-6-6C28.69 3 26 5.69 26 9c0 0.29 0.03 0.58 0.07 0.87L9.64 23H3.45C1.54 23 0 24.57 0 26.5S1.54 30 3.45 30h57.11C62.46 30 64 28.43 64 26.5S62.46 23 60.55 23zM16.04 23l11.95-9.55C29.05 14.41 30.46 15 32 15c1.55 0 2.95-0.59 4.01-1.55L47.96 23H16.04z"></path><path d="M7 60c0.23 1.58 1 4 5 4 0 0 37 0 40 0 4 0 4.77-2.41 5-4 1-7 4-28 4-28H3C3 32 6 53 7 60zM46 39.4C46 38.07 47.12 37 48.5 37s2.5 1.07 2.5 2.4v18.21C51 58.93 49.88 60 48.5 60S46 58.93 46 57.6V39.4zM35 39.4C35 38.07 36.12 37 37.5 37s2.5 1.07 2.5 2.4v18.21C40 58.93 38.88 60 37.5 60S35 58.93 35 57.6V39.4zM24 39.4C24 38.07 25.12 37 26.5 37s2.5 1.07 2.5 2.4v18.21C29 58.93 27.88 60 26.5 60S24 58.93 24 57.6V39.4zM13 39.4C13 38.07 14.12 37 15.5 37s2.5 1.07 2.5 2.4v18.21C18 58.93 16.88 60 15.5 60S13 58.93 13 57.6V39.4z"></path></g></symbol></defs><use xlink:href="#bhf_icon-cart" fill="#FFFFFF"></use><title id="crt-title">Acesse sua cesta</title></svg>