<svg xmlns:xlink="http://www.w3.org/1999/xlink" xmlns="http://www.w3.org/2000/svg" class="wish-icon wish-icon-default" aria-labelledby="wish-title" role="img" width="418"  height="356" ><defs><symbol id="bhf_icon-heart" viewBox="0 0 418 356"><title id="heartIcon">icone de coração</title><desc id="heartDesc">icone de coração</desc><path fill="inherit" d="M294.283321,5.5 C359.474955,5.5 412.5,58.4193651 412.5,123.515947 C412.5,152.026485 402.426071,180.338749 383.971973,208.214081 C368.629523,231.389198 347.782936,253.845301 322.60558,275.511488 C302.56123,292.760503 280.615256,308.79275 257.912863,323.409446 C242.421117,333.383643 228.503548,341.481838 217.389756,347.429471 L208.777625,352.038321 L200.334113,347.127375 C189.298763,340.708955 175.43897,332.053656 159.995904,321.531733 C137.343533,306.097851 115.441274,289.433387 95.4380116,271.82839 C70.3126976,249.715443 49.512937,227.275854 34.1943967,204.661263 C15.6568899,177.294547 5.5,150.189655 5.5,123.515947 C5.5,58.4193654 58.5250458,5.5 123.716678,5.5 C156.334334,5.5 186.791766,18.5962762 209.002148,41.7759673 C231.214522,18.5959141 261.669821,5.5 294.283321,5.5 Z M238.965898,293.981355 C260.392783,280.185882 281.06131,265.086852 299.775932,248.982123 C349.040716,206.58768 377.5,163.599289 377.5,123.515947 C377.5,77.7649795 340.160602,40.5 294.283321,40.5 C268.029096,40.5 243.951692,52.4181483 228.013272,73.3093244 L208.995416,98.2215451 L189.983303,73.3004261 C174.051887,52.4172854 149.974265,40.5 123.716678,40.5 C77.8393983,40.5 40.5,77.7649799 40.5,123.515947 C40.5,159.777536 69.1402077,202.058757 118.561562,245.554802 C137.38745,262.123585 158.168043,277.934622 179.703177,292.607291 C190.658782,300.071743 200.756529,306.536657 209.474244,311.838049 C218.12583,306.953979 228.125853,300.960604 238.965898,293.981355 Z"></path></symbol></defs><use xlink:href="#bhf_icon-heart" fill="#FFFFFF"></use><title id="wish-title">Acesse seus favoritos</title></svg>