<svg xmlns:xlink="http://www.w3.org/1999/xlink" xmlns="http://www.w3.org/2000/svg" class="location-icon" aria-labelledby="mmn-arw-title" role="img" width="24"  height="24" ><defs><symbol id="bhf_icon-location" viewBox="0 0 24 24"><title id="locationIcon">icone de localização</title><desc id="locationDesc">icone de localização</desc><g id="location" stroke="none" stroke-width="1" fill="none" fill-rule="evenodd"><path d="M12,3 C15.8636861,3 19,6.09317967 19,9.9140428 C19,11.7408799 17.9087251,14.3001528 16.1519401,17.1240631 L15.9645757,17.422274 C15.2495879,18.5492673 14.4737058,19.6391757 13.7937956,20.4872988 L13.5504174,20.7877892 C12.8374541,21.6567555 12.4562688,22 12,22 C11.4944209,22 11.0809885,21.5785253 10.2062182,20.4873986 L10.092036,20.343847 C9.44027371,19.5181005 8.71069186,18.4868458 8.03542998,17.4225032 L7.84806475,17.1242998 C6.09127192,14.3004561 5,11.7411263 5,9.9140428 C5,6.09317967 8.13631387,3 12,3 Z M11.9999847,20.2807481 C12.1569249,20.1118496 12.3450119,19.8930143 12.553286,19.6361007 L12.7317937,19.4128298 C13.3506745,18.6285787 14.0501782,17.6397895 14.69797,16.6187133 C16.4188164,13.906244 17.5,11.4319912 17.5,9.9140428 C17.5,6.92629226 15.0398732,4.5 12,4.5 C8.96012675,4.5 6.5,6.92629226 6.5,9.9140428 C6.5,11.3807867 7.50911218,13.7398776 9.12924455,16.3439363 L9.30202438,16.6189246 C9.94980719,17.6399548 10.6493051,18.6286898 11.2681914,19.412902 L11.4466978,19.6361577 L11.5824317,19.8016465 C11.6928509,19.9346366 11.7962887,20.0550624 11.8908657,20.1608908 L11.9999847,20.2807481 Z M12,6.5 C13.9329966,6.5 15.5,8.06700338 15.5,10 C15.5,11.9329966 13.9329966,13.5 12,13.5 C10.0670034,13.5 8.5,11.9329966 8.5,10 C8.5,8.06700338 10.0670034,6.5 12,6.5 Z M12,8 C10.8954305,8 10,8.8954305 10,10 C10,11.1045695 10.8954305,12 12,12 C13.1045695,12 14,11.1045695 14,10 C14,8.8954305 13.1045695,8 12,8 Z" fill="#FAD70A" fill-rule="nonzero"></path></g></symbol></defs><use xlink:href="#bhf_icon-location"></use><title>ícone de localização</title></svg>