<svg xmlns:xlink="http://www.w3.org/1999/xlink" xmlns="http://www.w3.org/2000/svg" class="src-btn-ico" aria-labelledby="src-title" role="img" width="24"  height="24" ><defs><symbol id="bhf_icon-search" viewBox="0 0 24 24"><title id="searchIcon">icone de busca</title><desc id="searchDesc">icone de busca</desc><g fill-rule="evenodd"><path d="m34.595 32.738l-5.444-5.444c1.315-1.709 2.099-3.847 2.099-6.17 0-5.592-4.533-10.125-10.125-10.125-5.592 0-10.125 4.533-10.125 10.125 0 5.592 4.533 10.125 10.125 10.125 2.323 0 4.461-.784 6.17-2.099l5.444 5.444c.529.529 1.373.542 1.886.029.513-.512.5-1.356-.029-1.886m-20.97-11.613c0-4.142 3.359-7.5 7.5-7.5 4.142 0 7.5 3.358 7.5 7.5 0 4.142-3.358 7.5-7.5 7.5-4.142 0-7.5-3.358-7.5-7.5" transform="translate(-11-11)"></path></g></symbol></defs><use xlink:href="#bhf_icon-search" fill="#e60014"></use><title id="src-title">Buscar</title></svg>