<svg xmlns:xlink="http://www.w3.org/1999/xlink" xmlns="http://www.w3.org/2000/svg" class="stores-icon" aria-labelledby="storesTitle" role="img" width="28"  height="28" ><defs><symbol id="bhf_icon-pickup-store-b" viewBox="0 0 22 18"><title id="pickupStoreIcon">icone de pegue na loja</title><desc id="pickupStoreDesc">icone de pegue na loja</desc><g><path d="M3.74,1.61h14.5l1.67,3.82H2.09Zm8.47,14.74H2.85V11.16h9.37ZM10.78,9.53H6.43V7.07h4.36Zm4.73,0h-3.1V7.07h3.1Zm4.85,0H17.14V7.07h3.22ZM4.81,7.07V9.53H1.65V7.07ZM0,10.34a.81.81,0,0,0,.81.82h.38v6A.82.82,0,0,0,2,18H13a.82.82,0,0,0,.81-.82v-6h5.33v6a.81.81,0,1,0,1.62,0v-6h.39a.81.81,0,0,0,.81-.82V6.27a.8.8,0,0,0-.11-.4L19.52.48A.81.81,0,0,0,18.78,0H3.22a.81.81,0,0,0-.74.49L.11,5.87a.8.8,0,0,0-.11.4Z"></path></g></symbol></defs><use xlink:href="#bhf_icon-pickup-store-b" fill="#FFFFFF"></use><title id="storesTitle">acesse nossas lojas</title></svg>