<svg width="50" height="50" viewBox="0 0 50 50" fill="none" xmlns="http://www.w3.org/2000/svg">
<path d="M25 49.0132C38.2621 49.0132 49.0132 38.2621 49.0132 25C49.0132 11.7379 38.2621 0.986847 25 0.986847C11.7379 0.986847 0.986842 11.7379 0.986842 25C0.986842 38.2621 11.7379 49.0132 25 49.0132Z" stroke="white" stroke-width="1.97368"/>
<path fill-rule="evenodd" clip-rule="evenodd" d="M25 27.3434C27.1632 27.3434 30.1645 28.0487 32.5711 29.1605C35.6 30.5605 37.5 32.45 37.5 34.7658C37.5 36.2763 36.2763 37.5 34.7658 37.5H15.2342C14.5091 37.5 13.8136 37.2119 13.3008 36.6992C12.7881 36.1864 12.5 35.4909 12.5 34.7658C12.5 32.45 14.4 30.5605 17.4289 29.1605C19.8355 28.0487 22.8368 27.3447 25 27.3447V27.3434ZM25 29.6882C23.1684 29.6882 20.4974 30.325 18.4118 31.2882C15.9697 32.4171 14.8434 33.6526 14.8434 34.7658C14.8434 34.9816 15.0184 35.1566 15.2342 35.1566H34.7658C34.8694 35.1566 34.9688 35.1154 35.0421 35.0421C35.1154 34.9688 35.1566 34.8694 35.1566 34.7658C35.1566 33.6526 34.0303 32.4171 31.5882 31.2882C29.5026 30.325 26.8316 29.6882 25 29.6882ZM25 12.5C26.6576 12.5 28.2473 13.1585 29.4194 14.3306C30.5915 15.5027 31.25 17.0924 31.25 18.75C31.25 20.4076 30.5915 21.9973 29.4194 23.1694C28.2473 24.3415 26.6576 25 25 25C23.3424 25 21.7527 24.3415 20.5806 23.1694C19.4085 21.9973 18.75 20.4076 18.75 18.75C18.75 17.0924 19.4085 15.5027 20.5806 14.3306C21.7527 13.1585 23.3424 12.5 25 12.5V12.5ZM25 14.8434C23.9639 14.8434 22.9703 15.255 22.2376 15.9876C21.505 16.7203 21.0934 17.7139 21.0934 18.75C21.0934 19.7861 21.505 20.7797 22.2376 21.5124C22.9703 22.245 23.9639 22.6566 25 22.6566C26.0361 22.6566 27.0297 22.245 27.7624 21.5124C28.495 20.7797 28.9066 19.7861 28.9066 18.75C28.9066 17.7139 28.495 16.7203 27.7624 15.9876C27.0297 15.255 26.0361 14.8434 25 14.8434V14.8434Z" fill="white"/>
</svg>
