<svg width="256" height="36" viewBox="0 0 256 36" fill="none" xmlns="http://www.w3.org/2000/svg">
<path d="M11.9879 20.8766C11.9879 21.9445 11.8485 24.9761 7.98032 24.9761C6.37728 24.9761 4.94849 24.5282 4.94849 22.7024C4.94849 20.911 6.34243 20.3943 7.87577 20.0842C9.4091 19.8086 11.1515 19.7742 11.9879 19.0507V20.8766ZM5.50607 15.4335C5.68031 13.5043 6.90001 12.7464 8.78183 12.7464C10.5243 12.7464 11.9879 13.0565 11.9879 15.1579C11.9879 17.156 9.16516 17.0526 6.13334 17.5005C3.06667 17.9139 0 18.8785 0 22.9091C0 26.5608 2.71819 28.2488 6.13334 28.2488C8.3288 28.2488 10.6288 27.6632 12.197 26.044C12.2318 26.6297 12.3712 27.2153 12.5455 27.7665H17.5637C17.1106 27.0431 16.9364 25.4239 16.9364 23.8048V14.5378C16.9364 10.266 12.6152 9.47369 9.02577 9.47369C4.98334 9.47369 0.836364 10.8517 0.557576 15.4335H5.50607" fill="white"/>
<path d="M19.6099 27.7665H24.5584V17.4316C24.5584 13.9522 26.9281 13.3321 27.9039 13.3321C31.0402 13.3321 30.9008 15.7091 30.9008 17.7761V27.7665H35.8493V17.845C35.8493 15.6057 36.3721 13.3321 39.1599 13.3321C41.9827 13.3321 42.1918 15.2957 42.1918 17.6727V27.7665H47.1403V15.8469C47.1403 11.2306 44.3872 9.47369 40.5539 9.47369C38.0448 9.47369 36.163 10.8861 35.1175 12.4364C34.1417 10.3005 32.1205 9.47369 29.8554 9.47369C27.5205 9.47369 25.6387 10.5416 24.3493 12.3675H24.2796V9.95598H19.6099V27.7665Z" fill="white"/>
<path d="M66.821 20.0498C67.1694 14.5723 64.2073 9.47369 58.074 9.47369C52.6028 9.47369 48.874 13.5388 48.874 18.8785C48.874 24.3904 52.3937 28.2488 58.074 28.2488C62.1513 28.2488 65.1134 26.4574 66.5073 22.2545H62.1512C61.8376 23.3569 60.2346 24.5627 58.2482 24.5627C55.4952 24.5627 53.9618 23.1502 53.8225 20.0498H66.821V20.0498ZM53.8225 16.9493C53.8922 15.5713 54.7982 13.1598 57.9346 13.1598C60.3391 13.1598 61.4194 14.4689 61.8725 16.9493H53.8225Z" fill="white"/>
<path d="M68.449 27.7665H73.3975V19.7397C73.3975 16.6048 74.6521 14.0211 78.2763 14.0211C78.8688 14.0211 79.6006 14.09 80.0536 14.1933V9.64593C79.74 9.54258 79.3218 9.47369 78.9733 9.47369C76.5688 9.47369 74.1293 11.0239 73.2233 13.2632H73.1536V9.95598H68.449V27.7665" fill="white"/>
<path d="M81.6501 27.7665H86.5986V9.46507H81.6501V27.7665Z" fill="white"/>
<path d="M105.475 16.2258C105.161 11.6785 101.258 9.47369 97.0069 9.47369C91.1523 9.47369 87.8068 13.5732 87.8068 19.1196C87.8068 24.4593 91.466 28.2488 96.9023 28.2488C101.642 28.2488 104.952 25.6651 105.58 20.9455H100.805C100.492 23.1158 99.1675 24.5627 96.8675 24.5627C93.766 24.5627 92.7553 21.4966 92.7553 18.9474C92.7553 16.3292 93.8008 13.1598 96.972 13.1598C99.0281 13.1598 100.317 14.2278 100.631 16.2258H105.475" fill="white"/>
<path d="M118.29 20.8766C118.29 21.9445 118.15 24.9761 114.282 24.9761C112.679 24.9761 111.25 24.5282 111.25 22.7024C111.25 20.911 112.644 20.3943 114.177 20.0842C115.711 19.8086 117.453 19.7742 118.29 19.0507V20.8766V20.8766ZM111.808 15.4335C111.982 13.5043 113.202 12.7464 115.083 12.7464C116.826 12.7464 118.29 13.0565 118.29 15.1579C118.29 17.156 115.467 17.0526 112.435 17.5005C109.368 17.9139 106.302 18.8785 106.302 22.9091C106.302 26.5608 109.02 28.2488 112.435 28.2488C114.63 28.2488 116.93 27.6632 118.499 26.044C118.533 26.6297 118.673 27.2153 118.847 27.7665H123.865C123.412 27.0431 123.238 25.4239 123.238 23.8048V14.5378C123.238 10.266 118.917 9.47369 115.327 9.47369C111.285 9.47369 107.138 10.8517 106.859 15.4335H111.808Z" fill="white"/>
<path d="M125.772 27.7665H130.721V18.4306C130.721 14.8134 131.871 13.3321 134.554 13.3321C136.854 13.3321 137.725 14.779 137.725 17.7072V27.7665H142.674V16.8115C142.674 12.4019 141.349 9.47369 136.087 9.47369C133.996 9.47369 131.836 10.4383 130.581 12.4364H130.477V9.95598H125.772V27.7665" fill="white"/>
<path d="M156.378 20.8766C156.378 21.9445 156.238 24.9761 152.37 24.9761C150.767 24.9761 149.338 24.5282 149.338 22.7024C149.338 20.911 150.732 20.3943 152.266 20.0842C153.799 19.8086 155.541 19.7742 156.378 19.0507V20.8766ZM149.896 15.4335C150.07 13.5043 151.29 12.7464 153.172 12.7464C154.914 12.7464 156.378 13.0565 156.378 15.1579C156.378 17.156 153.555 17.0526 150.523 17.5005C147.457 17.9139 144.39 18.8785 144.39 22.9091C144.39 26.5608 147.108 28.2488 150.523 28.2488C152.719 28.2488 155.019 27.6632 156.587 26.044C156.622 26.6297 156.761 27.2153 156.935 27.7665H161.954C161.501 27.0431 161.326 25.4239 161.326 23.8048V14.5378C161.326 10.266 157.005 9.47369 153.416 9.47369C149.373 9.47369 145.226 10.8517 144.948 15.4335H149.896" fill="white"/>
<path d="M162.989 21.9789C163.198 26.6986 167.276 28.2488 171.457 28.2488C175.57 28.2488 179.682 26.733 179.682 22.0478C179.682 18.7407 176.859 17.7072 173.967 17.0526C171.144 16.3981 168.356 16.1569 168.356 14.4C168.356 12.9531 169.994 12.7464 171.109 12.7464C172.886 12.7464 174.35 13.2632 174.489 15.1579H179.194C178.811 10.7828 175.186 9.47369 171.248 9.47369C167.38 9.47369 163.407 10.645 163.407 15.1923C163.407 18.3273 166.265 19.3263 169.123 19.9464C172.677 20.7043 174.733 21.2211 174.733 22.7024C174.733 24.4249 172.921 24.9761 171.492 24.9761C169.541 24.9761 167.729 24.1148 167.694 21.9789H162.989Z" fill="white"/>
<path d="M206.74 16.2258C206.426 11.6785 202.523 9.47369 198.272 9.47369C192.417 9.47369 189.072 13.5732 189.072 19.1196C189.072 24.4593 192.731 28.2488 198.167 28.2488C202.907 28.2488 206.217 25.6651 206.845 20.9455H202.07C201.757 23.1158 200.432 24.5627 198.132 24.5627C195.031 24.5627 194.02 21.4966 194.02 18.9474C194.02 16.3292 195.066 13.1598 198.237 13.1598C200.293 13.1598 201.582 14.2278 201.896 16.2258H206.74" fill="white"/>
<path d="M207.776 18.8785C207.776 24.5282 211.435 28.2488 217.08 28.2488C222.76 28.2488 226.42 24.5282 226.42 18.8785C226.42 13.1943 222.76 9.47369 217.08 9.47369C211.435 9.47369 207.776 13.1943 207.776 18.8785ZM212.724 18.8785C212.724 16.0191 213.735 13.1598 217.08 13.1598C220.46 13.1598 221.471 16.0191 221.471 18.8785C221.471 21.7034 220.46 24.5627 217.08 24.5627C213.735 24.5627 212.724 21.7034 212.724 18.8785Z" fill="white"/>
<path d="M228.47 27.7665H233.418V17.4316C233.418 13.9522 235.788 13.3321 236.764 13.3321C239.9 13.3321 239.761 15.7091 239.761 17.7761V27.7665H244.709V17.845C244.709 15.6057 245.232 13.3321 248.02 13.3321C250.842 13.3321 251.051 15.2957 251.051 17.6727V27.7665H256V15.8469C256 11.2306 253.247 9.47369 249.414 9.47369C246.905 9.47369 245.023 10.8861 243.977 12.4364C243.001 10.3005 240.98 9.47369 238.715 9.47369C236.38 9.47369 234.498 10.5416 233.209 12.3675H233.139V9.95598H228.47V27.7665Z" fill="white"/>
<path d="M186.951 25.1139C186.951 26.5789 185.727 27.7665 184.216 27.7665C182.705 27.7665 181.48 26.5789 181.48 25.1139C181.48 23.6489 182.705 22.4612 184.216 22.4612C185.727 22.4612 186.951 23.6489 186.951 25.1139Z" fill="white"/>
<path d="M179.682 0H0.000106812V4.30622H179.682V0Z" fill="white"/>
<path d="M179.682 31.6938H0.000106812V36H179.682V31.6938Z" fill="white"/>
</svg>
