<svg width="50" height="50" viewBox="0 0 50 50" fill="none" xmlns="http://www.w3.org/2000/svg">
<path d="M25 47.2182C24.2881 47.2182 23.6019 46.9604 23.067 46.4919C21.0472 44.7257 19.0998 43.0659 17.3816 41.6019L17.3729 41.5942C12.3356 37.3016 7.98567 33.5945 4.9591 29.9426C1.57585 25.8602 0 21.9894 0 17.7608C0 13.6524 1.40877 9.86212 3.96651 7.0877C6.55478 4.28047 10.1063 2.73438 13.9679 2.73438C16.8541 2.73438 19.4973 3.64685 21.8238 5.44624C22.998 6.35452 24.0623 7.46612 25 8.76273C25.938 7.46612 27.0019 6.35452 28.1764 5.44624C30.503 3.64685 33.1462 2.73438 36.0324 2.73438C39.8936 2.73438 43.4455 4.28047 46.0338 7.0877C48.5915 9.86212 49.9999 13.6524 49.9999 17.7608C49.9999 21.9894 48.4244 25.8602 45.0412 29.9423C42.0146 33.5945 37.6651 37.3012 32.6286 41.5935C30.9074 43.0598 28.9569 44.7223 26.9325 46.4927C26.398 46.9604 25.7114 47.2182 25 47.2182V47.2182ZM13.9679 5.66329C10.934 5.66329 8.14703 6.87408 6.11953 9.07286C4.06188 11.3048 2.92854 14.3902 2.92854 17.7608C2.92854 21.3173 4.25033 24.4979 7.21396 28.0738C10.0784 31.5303 14.339 35.1611 19.2722 39.3653L19.2814 39.3729C21.006 40.8427 22.961 42.509 24.9958 44.2882C27.0427 42.5056 29.0008 40.8366 30.7289 39.3646C35.6616 35.1604 39.9219 31.5303 42.7863 28.0738C45.7496 24.4979 47.0714 21.3173 47.0714 17.7608C47.0714 14.3902 45.938 11.3048 43.8804 9.07286C41.8533 6.87408 39.0659 5.66329 36.0324 5.66329C33.81 5.66329 31.7695 6.36977 29.9678 7.7629C28.3622 9.00496 27.2438 10.5751 26.588 11.6737C26.2508 12.2387 25.6572 12.5759 25 12.5759C24.3427 12.5759 23.7491 12.2387 23.4119 11.6737C22.7565 10.5751 21.6381 9.00496 20.0321 7.7629C18.2304 6.36977 16.1899 5.66329 13.9679 5.66329V5.66329Z" fill="white"/>
</svg>
