<svg width="50" height="50" viewBox="0 0 50 50" fill="none" xmlns="http://www.w3.org/2000/svg">
<path d="M36.7188 2.92969C34.0056 2.92969 31.5181 3.78945 29.3255 5.48516C27.2234 7.11084 25.8239 9.18144 25 10.6871C24.1761 9.18135 22.7766 7.11084 20.6745 5.48516C18.4819 3.78945 15.9944 2.92969 13.2812 2.92969C5.70977 2.92969 0 9.12275 0 17.3354C0 26.2078 7.12334 32.2782 17.9071 41.468C19.7384 43.0286 21.8141 44.7976 23.9715 46.6842C24.2559 46.9332 24.6211 47.0703 25 47.0703C25.3789 47.0703 25.7441 46.9332 26.0285 46.6843C28.1861 44.7974 30.2617 43.0285 32.094 41.467C42.8767 32.2782 50 26.2078 50 17.3354C50 9.12275 44.2902 2.92969 36.7188 2.92969Z" fill="white"/>
</svg>
