<svg width="50" height="44" viewBox="0 0 50 44" fill="none" xmlns="http://www.w3.org/2000/svg">
<path d="M35.5231 23.9463H28.729C26.8696 23.9463 25.3576 25.4583 25.3576 27.3178V32.5282C25.3576 34.3876 26.8696 35.8997 28.729 35.8997H35.5231C37.3825 35.8997 38.8946 34.3876 38.8946 32.5282V27.3178C38.8946 25.4583 37.3825 23.9463 35.5231 23.9463ZM36.4426 32.5282C36.4426 33.039 36.0237 33.4477 35.5231 33.4477H28.729C28.2182 33.4477 27.8095 33.0288 27.8095 32.5282V27.3178C27.8095 26.8069 28.2284 26.3983 28.729 26.3983H35.5231C36.0339 26.3983 36.4426 26.8171 36.4426 27.3178V32.5282Z" fill="white"/>
<path d="M50 14.4755C50 14.261 49.9489 14.0566 49.8365 13.8727L42.3989 0.795484C42.1843 0.41747 41.7756 0.172272 41.3363 0.172272H8.65345C8.21414 0.172272 7.80548 0.407254 7.59093 0.795484L0.163465 13.8727C0.0612996 14.0566 0 14.261 0 14.4755C0 17.4077 1.76747 19.9209 4.29097 21.0346V42.6018C4.29097 43.2761 4.84266 43.8278 5.51696 43.8278H12.2906C12.3008 43.8278 12.311 43.8278 12.3212 43.8278H21.8226C21.8329 43.8278 21.8431 43.8278 21.8533 43.8278H44.4728C45.1471 43.8278 45.6988 43.2761 45.6988 42.6018V21.1878C45.6988 21.1367 45.6988 21.0959 45.6886 21.055C48.2223 19.9414 50 17.4179 50 14.4755ZM9.36861 2.63447H40.6212L46.4344 12.8613H3.56559L9.36861 2.63447ZM35.5844 15.303C35.1962 17.5098 33.2652 19.1853 30.9461 19.1853C28.6269 19.1853 26.696 17.5098 26.3077 15.303H35.5844ZM23.7025 15.303C23.3143 17.5098 21.3833 19.1853 19.0642 19.1853C16.745 19.1853 14.8141 17.5098 14.4156 15.303H23.7025ZM2.53371 15.303H11.8206C11.4324 17.5098 9.49121 19.1853 7.17205 19.1853C4.85288 19.1956 2.92195 17.5098 2.53371 15.303ZM20.5966 41.3758H13.5472V28.1453C13.5472 27.1849 14.3237 26.3983 15.2942 26.3983H18.8598C19.8202 26.3983 20.6069 27.1747 20.6069 28.1453V41.3758H20.5966ZM43.2468 41.3758H23.0486V28.1453C23.0486 25.8364 21.1688 23.9463 18.8496 23.9463H15.284C12.9751 23.9463 11.085 25.8261 11.085 28.1453V41.386H6.74295V21.6373C6.88598 21.6475 7.02901 21.6475 7.17205 21.6475C9.64446 21.6475 11.8308 20.3909 13.1181 18.4804C14.4054 20.3909 16.5917 21.6475 19.0642 21.6475C21.5366 21.6475 23.7127 20.3909 25.0102 18.4804C26.2975 20.3909 28.4839 21.6475 30.9461 21.6475C33.4185 21.6475 35.5946 20.3909 36.8819 18.4804C38.1692 20.3909 40.3555 21.6475 42.828 21.6475C42.971 21.6475 43.1038 21.6373 43.2468 21.6373V41.3758ZM42.828 19.1956C40.5088 19.1956 38.5778 17.52 38.1896 15.3133H47.4765C47.0781 17.5098 45.1471 19.1956 42.828 19.1956Z" fill="white"/>
</svg>
