<svg width="80" height="80" viewBox="0 0 80 80" fill="none" xmlns="http://www.w3.org/2000/svg">
<path d="M55.4099 40.3187C52.9178 37.8266 49.9434 35.9921 46.6978 34.9001C49.6909 32.6879 51.6357 29.1348 51.6357 25.1357C51.6358 18.444 46.1918 13 39.5 13C32.8083 13 27.3643 18.444 27.3643 25.1357C27.3643 29.1349 29.3091 32.6879 32.3022 34.9001C29.0566 35.992 26.0824 37.8265 23.5901 40.3187C19.3404 44.5684 17 50.2187 17 56.2287C17 57.207 17.793 58 18.7714 58H60.2286C61.207 58 62 57.207 62 56.2287C62.0001 50.2187 59.6596 44.5684 55.4099 40.3187ZM30.9071 25.1357C30.9071 20.3975 34.7619 16.5428 39.5001 16.5428C44.2384 16.5428 48.0931 20.3975 48.0931 25.1357C48.0931 29.8739 44.2384 33.7286 39.5001 33.7286C34.7619 33.7287 30.9071 29.8739 30.9071 25.1357ZM20.6249 54.4572C21.5208 44.8315 29.6442 37.2713 39.5 37.2713C49.3559 37.2713 57.4792 44.8314 58.3752 54.4572H20.6249V54.4572Z" fill="white"/>
<path d="M78 40C78 60.9868 60.9868 78 40 78C19.0132 78 2 60.9868 2 40C2 19.0132 19.0132 2 40 2C60.9868 2 78 19.0132 78 40Z" stroke="white" stroke-width="4"/>
</svg>
