<svg xmlns:xlink="http://www.w3.org/1999/xlink" xmlns="http://www.w3.org/2000/svg" class="ft-icon-social" aria-labelledby="ft-icon-fb" role="img" width="77"  height="145" ><defs><symbol id="bhf_icon-social-facebook" viewBox="0 0 77 145"><path d="M71.3 78.2L74.9 52.8 49.6 52.8 49.6 36.5C48.8 32.9 49.9 29.3 52.5 26.8 55.1 24.2 58.8 23.2 62.3 24L75.8 24 75.8 1C69.1 0.3 62.4 0 55.7 0 46.7-0.4 37.9 3.1 31.7 9.6 25.4 16.1 22.3 24.9 23 33.9L23 52.8 0.9 52.8 0.9 78.2 23 78.2 23 144 49.6 144 49.6 78.2 71.3 78.2 71.3 78.2Z"></path></symbol></defs><use xlink:href="#bhf_icon-social-facebook" fill="#999999"></use><title id="ft-icon-fb">Facebook</title></svg>