<svg xmlns:xlink="http://www.w3.org/1999/xlink" xmlns="http://www.w3.org/2000/svg" class="acc_icon" aria-labelledby="acc_icon_desc" role="img" width="25"  height="25" ><defs><symbol id="bhf_icon-handtalk" viewBox="0 0 25 25"><rect id="Rectangle" fill="#00529B" x="0" y="0" width="25" height="25" rx="3"></rect><g id="handtalk" transform="translate(2.000000, 2.000000)" fill="#FFFFFF" fill-rule="nonzero"><path d="M20.944,10.406 C20.834,11.308 20.636,11.66 20.614,11.704 C20.548,11.814 20.416,11.836 20.328,11.77 L20.328,11.77 C20.24,11.704 20.196,11.572 20.262,11.484 L20.262,11.484 C20.262,11.484 20.372,11.286 20.46,10.846 L20.504,9.526 C20.438,9.196 20.328,8.954 20.328,8.954 C20.284,8.844 20.328,8.734 20.438,8.69 C20.548,8.646 20.658,8.69 20.702,8.778 C20.702,8.8 21.032,9.526 20.944,10.406 M19.69,11.462 C19.646,11.572 19.514,11.616 19.404,11.55 C19.294,11.506 19.25,11.374 19.316,11.264 L19.316,11.264 C19.316,11.264 19.404,11.066 19.448,10.604 L19.36,9.284 C19.25,8.954 19.14,8.734 19.14,8.734 C19.074,8.624 19.118,8.514 19.206,8.448 C19.316,8.382 19.426,8.426 19.492,8.514 C19.514,8.536 19.91,9.218 19.888,10.12 C19.888,11.022 19.712,11.418 19.69,11.462 M18.788,10.934 C18.436,12.474 17.798,13.728 17.6,14.212 C17.38,14.696 17.27,15.378 17.314,17.006 C17.358,18.634 17.27,19.778 17.226,20.196 C17.204,20.416 16.984,20.57 16.742,20.57 C16.522,20.57 16.302,20.438 16.258,20.108 C16.148,19.426 15.906,16.808 15.84,16.456 C15.796,16.258 15.62,15.928 15.444,15.928 C15.312,15.928 15.158,16.104 15.048,16.588 C14.784,17.776 14.366,20.526 14.234,21.142 C14.102,21.758 13.86,21.846 13.706,21.846 C13.64,21.846 13.596,21.824 13.596,21.824 L13.574,21.824 C13.486,21.824 13.046,21.802 13.068,21.274 C13.09,20.68 13.596,16.786 13.574,16.412 C13.574,16.192 13.508,15.994 13.398,15.994 C13.31,15.994 13.222,16.082 13.09,16.28 C12.76,16.786 10.978,19.932 10.428,20.988 C10.318,21.208 10.12,21.274 9.922,21.274 C9.768,21.274 9.636,21.23 9.57,21.186 C9.394,21.076 9.24,20.68 9.328,20.416 C9.394,20.152 11.286,16.038 11.55,15.532 C11.726,15.202 11.66,14.85 11.418,14.85 C11.308,14.85 11.132,14.938 10.956,15.158 C10.362,15.796 7.854,18.282 7.546,18.612 C7.414,18.766 7.282,18.832 7.15,18.832 C6.996,18.832 6.864,18.744 6.732,18.634 C6.512,18.414 6.446,18.106 6.666,17.842 C6.776,17.71 7.546,16.698 8.404,15.598 C8.624,15.312 8.844,15.004 9.064,14.718 L9.196,14.542 L9.24,14.498 L9.35,14.344 L9.372,14.256 C9.394,14.212 9.438,14.168 9.46,14.124 L9.504,14.058 C9.526,14.014 9.57,13.97 9.592,13.926 L9.636,13.86 L9.724,13.75 L9.79,13.662 C9.812,13.618 9.834,13.596 9.856,13.552 L9.922,13.464 L9.988,13.376 L10.032,13.31 L10.098,13.222 L10.142,13.156 C10.164,13.134 10.186,13.09 10.186,13.068 L10.23,13.002 L10.274,12.914 C10.296,12.892 10.296,12.87 10.318,12.848 C10.34,12.826 10.34,12.804 10.362,12.782 L10.384,12.738 C10.406,12.694 10.428,12.672 10.428,12.628 C10.89,11.682 11.726,10.23 10.186,10.23 C10.098,10.23 10.01,10.23 9.9,10.252 C9.284,10.318 8.844,10.34 8.536,10.34 C7.854,10.34 7.678,10.23 7.458,10.164 C7.15,10.054 6.71,9.724 6.864,9.438 C7.018,9.152 7.788,9.284 8.096,9.174 L8.404,9.064 L8.404,9.064 L8.426,9.064 L8.426,9.064 C8.58,9.02 9.218,8.844 9.856,8.58 C10.142,8.47 10.428,8.338 10.67,8.206 C11.55,7.7 13.552,6.842 14.08,6.754 C14.322,6.71 14.586,6.688 14.828,6.688 C15.18,6.688 15.532,6.732 15.774,6.842 C16.192,7.018 16.588,7.92 18.304,8.69 C18.392,8.646 19.162,9.372 18.788,10.934 M3.85,13.75 C3.278,12.254 3.124,10.868 3.036,10.362 C2.948,9.856 2.662,9.196 1.738,7.876 C0.792,6.556 0.242,5.544 0.044,5.17 C-0.154,4.796 0.44,4.202 0.902,4.73 C1.364,5.236 3.014,7.282 3.278,7.546 C3.52,7.788 4.29,8.118 3.872,6.996 C3.432,5.852 2.244,3.344 2.024,2.75 C1.694,1.892 2.178,1.826 2.178,1.826 C2.178,1.826 2.618,1.496 2.926,2.002 C3.234,2.508 4.972,6.028 5.192,6.336 C5.412,6.644 5.676,6.776 5.676,6.182 C5.654,5.566 5.412,1.98 5.28,0.792 C5.236,0.374 5.676,0.154 5.896,0.154 C6.116,0.132 6.446,0.396 6.534,0.638 C6.622,0.902 7.326,5.368 7.414,5.94 C7.48,6.512 7.986,6.776 8.118,5.918 C8.25,5.06 8.976,1.606 9.042,1.166 C9.108,0.726 9.416,0.638 9.724,0.704 C10.032,0.77 10.252,0.99 10.23,1.342 C10.208,1.672 9.856,6.028 9.922,7.502 C9.328,7.766 8.602,7.986 8.316,8.052 L8.272,8.074 L8.228,8.096 L7.832,8.162 C7.788,8.162 7.678,8.162 7.612,8.184 C7.15,8.206 6.358,8.25 6.006,8.932 C5.83,9.262 5.808,9.658 5.94,10.01 C6.204,10.692 6.93,11.022 7.15,11.11 L7.194,11.132 C7.502,11.264 7.832,11.352 8.58,11.352 C8.954,11.352 9.416,11.33 9.988,11.264 C9.878,11.506 9.746,11.814 9.636,11.99 L9.548,12.144 C9.35,12.54 8.58,13.618 7.238,15.356 C6.776,15.312 6.204,15.29 5.456,15.422 C5.456,15.422 4.4,15.246 3.85,13.75 M4.862,16.522 C4.818,16.632 4.686,16.676 4.598,16.632 L4.598,16.632 C4.576,16.61 3.828,16.324 3.3,15.598 C2.772,14.872 2.684,14.454 2.662,14.41 C2.64,14.3 2.706,14.19 2.816,14.168 C2.926,14.146 3.036,14.212 3.058,14.322 C3.058,14.322 3.102,14.542 3.344,14.938 L4.224,15.95 C4.51,16.148 4.73,16.258 4.73,16.258 C4.862,16.302 4.906,16.412 4.862,16.522 L4.862,16.522 M3.784,17.072 C3.74,17.182 3.608,17.204 3.498,17.16 C3.476,17.138 2.772,16.764 2.31,15.994 C1.848,15.224 1.804,14.806 1.804,14.762 C1.782,14.652 1.87,14.542 2.002,14.542 C2.112,14.52 2.222,14.608 2.222,14.74 L2.222,14.74 C2.222,14.74 2.244,14.96 2.442,15.378 L3.212,16.456 C3.476,16.676 3.696,16.808 3.696,16.808 C3.784,16.83 3.828,16.962 3.784,17.072 L3.784,17.072" id="Shape" fill="#FFFFFF"></path></g></symbol></defs><use xlink:href="#bhf_icon-handtalk"></use><title id="acc_icon_desc">acessibilidade</title></svg>