<svg xmlns:xlink="http://www.w3.org/1999/xlink" xmlns="http://www.w3.org/2000/svg" class="ft-icon-social" aria-labelledby="ft-icon-it" role="img" width="156"  height="156" ><defs><symbol id="bhf_icon-social-instagram" viewBox="0 0 156 156"><path d="M77.5 14C98.2 14 100.6 14.1 108.8 14.4 116.4 14.8 120.5 16 123.2 17.1 126.8 18.5 129.4 20.2 132.1 22.9 134.8 25.6 136.5 28.2 137.9 31.8 139 34.5 140.2 38.6 140.6 46.2 140.9 54.4 141 56.8 141 77.5 141 98.2 140.9 100.6 140.6 108.8 140.2 116.4 139 120.5 137.9 123.2 136.5 126.8 134.8 129.4 132.1 132.1 129.4 134.8 126.8 136.5 123.2 137.9 120.5 139 116.4 140.2 108.8 140.6 100.6 140.9 98.2 141 77.5 141 56.8 141 54.4 140.9 46.2 140.6 38.6 140.2 34.5 139 31.8 137.9 28.2 136.5 25.6 134.8 22.9 132.1 20.2 129.4 18.5 126.8 17.1 123.2 16 120.5 14.8 116.4 14.4 108.8 14.1 100.6 14 98.2 14 77.5 14 56.8 14.1 54.4 14.4 46.2 14.8 38.6 16 34.5 17.1 31.8 18.5 28.2 20.2 25.6 22.9 22.9 25.6 20.2 28.2 18.5 31.8 17.1 34.5 16 38.6 14.8 46.2 14.4 54.4 14.1 56.8 14 77.5 14M77.5 0C56.5 0 53.8 0.1 45.6 0.5 37.3 0.9 31.7 2.2 26.8 4.1 21.7 6.1 17.3 8.7 13 13 8.7 17.3 6.1 21.7 4.1 26.8 2.2 31.7 0.9 37.3 0.5 45.6 0.1 53.8 0 56.5 0 77.5 0 98.5 0.1 101.2 0.5 109.4 0.9 117.7 2.2 123.3 4.1 128.2 6.1 133.3 8.7 137.7 13 142 17.3 146.3 21.7 148.9 26.8 150.9 31.7 152.8 37.3 154.1 45.6 154.5 53.8 154.9 56.5 155 77.5 155 98.5 155 101.2 154.9 109.4 154.5 117.7 154.1 123.3 152.8 128.2 150.9 133.3 148.9 137.7 146.3 142 142 146.3 137.7 148.9 133.3 150.9 128.2 152.8 123.3 154.1 117.7 154.5 109.4 154.9 101.2 155 98.5 155 77.5 155 56.5 154.9 53.8 154.5 45.6 154.1 37.3 152.8 31.7 150.9 26.8 148.9 21.7 146.3 17.3 142 13 137.7 8.7 133.3 6.1 128.2 4.1 123.3 2.2 117.7 0.9 109.4 0.5 101.2 0.1 98.5 0 77.5 0M77.5 37.7C55.5 37.7 37.7 55.5 37.7 77.5 37.7 99.5 55.5 117.3 77.5 117.3 99.5 117.3 117.3 99.5 117.3 77.5 117.3 55.5 99.5 37.7 77.5 37.7L77.5 37.7 77.5 37.7ZM77.5 103.3C63.2 103.3 51.7 91.8 51.7 77.5 51.7 63.2 63.2 51.7 77.5 51.7 91.8 51.7 103.3 63.2 103.3 77.5 103.3 91.8 91.8 103.3 77.5 103.3L77.5 103.3 77.5 103.3ZM128.2 36.1C128.2 41.3 124 45.4 118.9 45.4 113.7 45.4 109.6 41.3 109.6 36.1 109.6 31 113.7 26.8 118.9 26.8 124 26.8 128.2 31 128.2 36.1"></path></symbol></defs><use xlink:href="#bhf_icon-social-instagram" fill="#999999"></use><title id="ft-icon-it">Instagram</title></svg>