<svg xmlns:xlink="http://www.w3.org/1999/xlink" xmlns="http://www.w3.org/2000/svg" class="ft-icon-social" aria-labelledby="ft-icon-gg" role="img" width="355"  height="255.1" ><defs><symbol id="bhf_icon-social-youtube" viewBox="0 0 355 255.1"><path d="M340.5 48.6c-3.9-14.6-15.4-26-29.9-29.9 -26.4-7.1-132.3-7.1-132.3-7.1S72.4 11.6 46 18.7C31.5 22.5 20 34 16.1 48.6 9 75 9 130.1 9 130.1s0 55.1 7.1 81.5c3.9 14.6 15.4 26 29.9 29.9 26.4 7.1 132.3 7.1 132.3 7.1s105.9 0 132.3-7.1c14.6-3.9 26-15.4 29.9-29.9 7.1-26.4 7.1-81.5 7.1-81.5S347.6 75 340.5 48.6zM144.5 180.9V79.3l88 50.8L144.5 180.9z"></path></symbol></defs><use xlink:href="#bhf_icon-social-youtube" fill="#999999"></use><title id="ft-icon-gg">Youtube</title></svg>