<svg xmlns:xlink="http://www.w3.org/1999/xlink" xmlns="http://www.w3.org/2000/svg" class="ft-icon-social" aria-labelledby="ft-icon-tw" role="img" width="191"  height="156" ><defs><symbol id="bhf_icon-social-twitter" viewBox="0 0 191 156"><path d="M190.7 18.5C183.6 21.6 176 23.7 168.2 24.7 176.4 19.8 182.5 12 185.4 2.9 177.7 7.5 169.3 10.7 160.6 12.4 148.4-0.6 129.1-3.7 113.5 4.6 97.9 13 89.9 30.8 94 48.1 62.5 46.5 33.2 31.7 13.3 7.2 2.9 25.1 8.2 48 25.4 59.5 19.2 59.3 13.1 57.6 7.7 54.6L7.7 54.6C7.5 73.4 20.6 89.8 39.1 93.5 35.8 94.4 32.3 94.8 28.8 94.8 26.3 94.8 23.9 94.6 21.4 94.1 26.5 110 41.2 120.9 57.9 121.2 44.1 132.1 27 138 9.4 138 6.2 138.2 3.1 138.2 0 138 17.9 149.5 38.8 155.6 60.1 155.6 89.6 155.8 118.1 144.1 139 123.2 159.9 102.3 171.6 73.8 171.4 44.3L171.4 39.2C179 33.5 185.6 26.5 190.7 18.5L190.7 18.5Z"></path></symbol></defs><use xlink:href="#bhf_icon-social-twitter" fill="#999999"></use><title id="ft-icon-tw">Twitter</title></svg>